<svg xmlns="http://www.w3.org/2000/svg" viewBox="0 0 1920 1080" width="1920" height="1080">
  <title>Массовая явка на участок</title>
  <rect width="1920" height="1080" fill="#F4EFE6"/>
  <circle cx="1440" cy="300" r="180" fill="#F2C230" opacity="0.55"/>
  <path d="M0 1080 L1920 1080 L1920 860 Q960 800 0 880 Z" fill="#E3DACD"/>

  <!-- здание участка -->
  <rect x="1180" y="330" width="600" height="560" rx="10" fill="#FFFFFF"/>
  <path d="M1150 340 L1480 180 L1810 340 Z" fill="#C8102E"/>
  <rect x="1380" y="600" width="200" height="290" rx="8" fill="#4A5A68"/>
  <rect x="1240" y="430" width="120" height="130" rx="8" fill="#DCE3E8"/>
  <rect x="1600" y="430" width="120" height="130" rx="8" fill="#DCE3E8"/>
  <text x="1480" y="560" text-anchor="middle" font-family="Liberation Sans, DejaVu Sans, Arial, sans-serif" font-size="52" font-weight="900" fill="#C8102E">УИК</text>

  <!-- очередь людей -->
  <g>
    <g fill="#C8102E"><circle cx="240" cy="600" r="62"/><path d="M148 900 q0 -160 92 -160 q92 0 92 160 z"/></g>
    <g fill="#4A5A68"><circle cx="410" cy="640" r="58"/><path d="M326 910 q0 -150 84 -150 q84 0 84 150 z"/></g>
    <g fill="#F2C230"><circle cx="576" cy="606" r="60"/><path d="M488 900 q0 -156 88 -156 q88 0 88 156 z"/></g>
    <g fill="#8E1220"><circle cx="742" cy="648" r="56"/><path d="M660 912 q0 -148 82 -148 q82 0 82 148 z"/></g>
    <g fill="#4A5A68"><circle cx="900" cy="614" r="58"/><path d="M816 902 q0 -152 84 -152 q84 0 84 152 z"/></g>
    <g fill="#C8102E"><circle cx="1058" cy="652" r="54"/><path d="M978 914 q0 -144 80 -144 q80 0 80 144 z"/></g>
  </g>

  <!-- флажок -->
  <rect x="196" y="330" width="12" height="230" rx="6" fill="#22262B"/>
  <path d="M208 340 L400 384 L208 428 Z" fill="#C8102E"/>
  <text x="960" y="988" text-anchor="middle" font-family="Liberation Sans, DejaVu Sans, Arial, sans-serif" font-size="64" font-weight="900" fill="#22262B" letter-spacing="3">ЧЕМ БОЛЬШЕ НАС — ТЕМ ЧЕСТНЕЕ СЧЁТ</text>
</svg>
